<?xml version="1.0" encoding="UTF-8"?>
<svg version="1.1" viewBox="0 0 1024 1024" width="1280" height="1280" xmlns="http://www.w3.org/2000/svg">
<path transform="translate(0)" d="m0 0h1024v1024h-1024z" fill="#16412A"/>
<path transform="translate(301,430)" d="m0 0 5 1 9 6 1 2v9l-2 16v16l3 26 6 25 3 8 15 5 8 6 5 7 2 10v17l-2 19v5l9-1 15-3h22l14 4 10 6 9 8 1 2-1-16v-11l5-4 5-2 1-6 2-31 7-45 1-3h95l12 1v1l-6 1-23 1-48 1-21 1-4 1-4 24-4 36-2 16 11-3 18-2 11 4 11 8 3 2 10-8 16-8 9-2h14l13 4 9 6 3 3 1-10 4-4 16-4 7-1h18l16 8 3 3 4-1 7-6 12-6 11-3h16l10 3 11 6 3 3 1-9 4-4 13-4 13-3h16l10 5 5 4 5 10 2 12 3 32 2-2 8-20 6-24 3-17 5-3h25l9 3 8 8 3 7 1 6v10l-3 24-5 26-7 27-11 35-11 28-11 22-11 18-10 13-7 7-10 5-4 1h-14l-9-4-8-6-7-8-6-10-5 9-8 27 1 4 7-1-1 4-5 4h-7l-4-5-4 4-8 1-6-5v-2l-9 6-3 1h-7l-7-4-3-3-9 6-2 1h-7l-6-3-3-6-1-6-11 13-2 1h-7l-6-3-2 16-5 1-4-5 1-8 7-22 2-12 1-2 5 1 2 2v4l8-6 7 1 3 3 3 8 4-7 8-5h7l4 2 2 4-1 9-5 6-10 2v5l8 1 7-4 1-1 2-12 7-8 6-4h7l5 3 1 2v10l-5 6-5 2-8-1 1 7 10-1 6-3 8-18 7-6h8l4 1 3-10 7-9h2l-4-12v-8l6-7 13-10 12-11 8-8 8-7 7-9-10-3-10-8-10-13-7-13-4 21-6 27-4 8-9 4-13 3h-11l-9-6-8-9-6-13-2-4-2 3-8 1-6-4-4-6-1 31-5 6-11 4-10 2h-10l-8-4-7-9-3-6-5 12-4 7-8 3-12 2h-10l-8-4-8-9-5-10-3-10-4 5-9-1-6-4-5-7 1 23v16l-3 7-8 5-9 3-6 1h-11l-10-5-9-10-1-2-4 3-13 3-16 1-10-5-7-7v-2l-10 7-9 4-5 1h-11l-11-4-11-11-7-12-7 23-10 26-9 20-9 17-8 11-9 10-9 7-8 4-7 2h-21l-9-3-8-9-8-15-10-25-1-3v-10l7-8 11-9 17-16 12-11 7-8 9-9 1-3-12-4-9-6-11-10-9-11-14-18-11-16-12-18-14-23-2-6 1-7 6-7 16-10 11-5 8-2h11l9 4 10 9 10 12 11 18 12 23 2 5 3-4 6-20 5-21 4-24 4-10 4-4 9-2-6-28-3-23v-40z" fill="#F5F5ED"/>
<path transform="translate(677,577)" d="m0 0h16l11 4 9 8 5 5 5 6 4 10 1 5v25l-5 30-7 34-12 5-16 3-6-4-7-8-5-12v-24l4-18v-9l-3 4-6 13-9 27-1 2-5-1-4-5-7-13-4-4-1 6-1 43-2 3-17 4h-11l-6-7-7-13-3-18v-22h-2l-1 15-4 23-5 20-4 4-14 3-9 1-5-3-3-3v-4h-2l-7-14-1-4v-25l4-18v-3l-3 3-7 14-4 11-5 16-4 1-4-4-6-11-6-8h-2l-1 7v27l1 14v10l-6 4-14 4h-11l-7-5-7-15-3-20-1-8-2-58-1-19-1-10 16-5 14-3h9l9 3 1 3 6 2 3 3v6l4 2 2-4h2l2-4 7-6 10-6 8-3 6-1h13l11 4 8 6 4 5 5 4 4 9v-29l14-4 18-2 10 2 9 5 4 4v6l5-2 9-9 16-8z" fill="#FBA801"/>
<path transform="translate(309,547)" d="m0 0h9l18 3 4 1 1 6 5 2 3 3v26l-4 25-2 8-2 12-15 58-9 30-13 34-11 23-10 16-9 10-8 7-8 4-10 2h-13l-8-2-5-5-8-16-9-21-2-9 7-8 11-9 3-1 1-3 8-7 13-12 10-10 8-10 5-5 10-13 4-8-11 7-5 2h-10l-9-4-8-6-7-7-7-9v-2h-2l-8-11-13-18-9-13-12-19-8-14 1-5 9-7 11-6 13-5h10l9 5 11 11 11 16 12 21 9 20 1 4 5-1 6-10 5-14 8-35 4-25 1-3z" fill="#FBA701"/>
<path transform="translate(814,566)" d="m0 0h23l5 2 1 4 6 2 1 2v22l-4 28-7 30-9 30-8 23-11 26-13 25-10 14-9 10-12 6h-12l-10-5-8-8-11-20-3-9 10-9 14-11 16-15 8-8 9-11 8-10 3-6-10 5-4 1h-11l-8-5-8-8-10-18-8-21-2-9-6-39v-8l8-3 20-5h9l13 8 3 9 3 27 2 16v12l6-1 5-6 9-21 6-18 3-14 2-12z" fill="#FBA701"/>
<path transform="translate(498,296)" d="m0 0h16l20 2 5 1-2 4 11 7-3-6-2-3 4 1 10 6 5 1 2 8v8l5-9 4 1 2 6-5 9-2 6 5-4 7-1 2 1v-2l5-2h7l8 3 8 7 4 9v9l-3 9-7 9-4 3h-8l-8-4-4 9-5 9-6 7-11 8-14 8-12 5-14 5h-10l-13-5-15-5-15-8-10-9-6-8-3-9h-2l-3 6-1 1h-6l-7-6 1-5 6-3 3-6-1-6 3-2 5 1 5-1-3-7-6 1-6 5-9-5v-11l4-5 6-2 13 4 10 8-4-12-5-6-5-3 1-5 4-6h4l5 9 2 1-1-5v-13l8-5 13-5z" fill="#F8C194"/>
<path transform="translate(539,588)" d="m0 0h13l11 4 8 6 4 5 2 1 2 13v23l-4 29-8 36-1 2-23 6-5-1-7-14-1-4v-25l4-18v-3l-3 3-7 14-4 11-5 16-4 1-4-4-6-11-6-8h-2l-1 7v27l1 14v10l-6 4-14 4h-11l-7-5-7-15-3-20-1-8-2-58-1-19-1-10 16-5 14-3h9l9 3 1 3 6 2 3 3v6l4 2 2-4h2l2-4 7-6 10-6 8-3z" fill="#FBA801"/>
<path transform="translate(512,177)" d="m0 0h16l11 3 12 7 11 11 5 10 2 6v8l9 3 6 5 4 7v13h-3l-7-10-11-7-3-2-3-16-5-10-8-8-10-6-9-4-10-2h-8l-11 2-12 6-11 10-6 9 1-1 10-9 16-8 10-2h8l12 3 11 7 7 9 4 10 1 6v13l-3 6-5 4-2 1h-8v2h15l10-5 6-7 2-2 7 10 5 12 1 3v12l-4 8-3 1-16-6-8-2h-6l18 12 5 6-1 2-11-5-14-4-12-2h-32l-15 3-17 6-9 3 2-5 7-6 10-6-9 1-15 5-6-1-6-6-2-6v-16l6-12 9-9 13-8 13-5 15-3 9-1 1-1-13-2-16 1-7 1 1-5 7-12 7-9 12-9 12-5z" fill="#F9FAF6"/>
<path transform="translate(376,612)" d="m0 0h24l13 4 8 6 10 9 6 12 2 12v27l-2 40-5 2-16 2h-8l-11-11-2-7-5 3-7 7-8 4-9 2h-8l-9-4-5-5-3-5-7-14v-13l5-12 8-11 7-7 8-5 14-4h7l3 1-1-6-2-3h-8l-17 7h-7l-4-10-3-6 1-4 7-5 18-5z" fill="#FBA701"/>
<path transform="translate(561,507)" d="m0 0 8 1 2 12 3 30v40l-14-7-8-2h-14l-12 3-13 7-10 8-8-6-10-6-7-2-18 2-11 2 3-37 5-35 2-5 4-1 21-1 48-1 23-1z" fill="#609638"/>
<path transform="translate(377,453)" d="m0 0 3 1 13 20 9 17 8 22 1 5h1l1-5v-14l-1-9 8-8 13-10 16-8h3l-3 19 1 10 3 5-8 1-2 3-2 13-1 15-10 9-13 8-17 7-8 2h-16l-9-4-6-4-6-5-9-12-10-19-7-21-3-15v-6l10 2h9l11-3 11-6 9-8z" fill="#F9FAF6"/>
<path transform="translate(347,284)" d="m0 0 13 2 12 6 11 10v2l4 2 8 13 6 16 2 12v8l-21 2-62 4-12 1h-15v-17l3-15 7-16 7-11 8-8 11-7 10-3z" fill="#FBA701"/>
<path transform="translate(416,383)" d="m0 0 3 3 5 6 9 5 12 1 5 8 5 5 8 6 8 5v2l-19 7-13 7-14 10-15 15-6 8-3-3-12-16-9-10-4-2-3-7-1-15 11-12 10-17 16-4z" fill="#FCA801"/>
<path transform="translate(637,415)" d="m0 0 5 4 3 7 2 9v6l-5 5-8 6-4 6-1 10-10 4-2 3-2 6-4 3h-11l-10-3-9-7-6-10-2-6-1-10 1-12 4-8 4-5 9-5h19l12 7 4 5 1 7-1 4 5-1v-11l-1-6 6-5z" fill="#FAA701"/>
<path transform="translate(718,765)" d="m0 0 4 1 1 5-4 8-8 27 1 4 7-1-1 4-5 4h-7l-4-5-4 4-8 1-6-5v-2l-9 6-3 1h-7l-7-4-3-3-9 6-2 1h-7l-6-3-3-6-1-6-11 13-2 1h-7l-6-3-2 16-5 1-4-5 1-8 7-22 2-12 1-2 5 1 2 2v4l8-6 7 1 3 3 3 8 4-7 8-5h7l4 2 2 4-1 9-5 6-10 2v5l8 1 7-4 1-1 2-12 7-8 6-4h7l5 3 1 2v10l-5 6-5 2-8-1 1 7 10-1 6-3 8-18 7-6h8l4 1 3-10z" fill="#FCA801"/>
<path transform="translate(341,557)" d="m0 0 5 2 3 3v26l-4 25-2 8-2 12-15 58-9 30-13 34-11 23-10 16-9 10-8 7-8 4-10 2h-13l-8-2-5-5-2-5 23 1 10-3 10-6 10-10 9-14 9-17 11-27 10-31 12-43 8-36 6-35z" fill="#1B472B"/>
<path transform="translate(583,292)" d="m0 0 9 3 11 6 14 9 10 8 14 12 11 11-1 3-8 7-9 12-8 15-3 14-1 13-4 3-19 1-12 3-8 4-5 5-7 10-5-2-11-5v-2l18-11 13-10 8-9 1-2 12-2 6-4 8-10 4-10 1-4v-11l-4-11-4-6-7-6-9-4-14-2-3-12-1-9z" fill="#FBA801"/>
<path transform="translate(654,430)" d="m0 0 8 1 4 5 2 4v12l-3 5-5 4 6 4 4 6 1 3v11l-3 9-9 13-6 8-9 7-9 3-5 1h-11l-11-3-8-7-3-6 1-2 11 5 5 1h10l8-2-2-1-14-1-9-4-5-4-4-7v-3l21 1 5 1h12l6-1-1-2-12-2-6-4 1-5 6-4 16-4 2-5-9-1-2-2 1-6 5-4 8-2 4-8z" fill="#F8C195"/>
<path transform="translate(297,391)" d="m0 0 19 2 20 2 10 4 9 7 6 8 1 2 1 17 4 14v5l-8 7-10 4-11 1-8-2-4-3-2-23-3-5v-2l-5-2-11-5-18-6-8-6-3-7 1-4 2-2 5 1 12 5 8 10 13 4 8 3 5 5 7 12 2 1-3-14-4-9-9-4-13-4-5-5-4-6z" fill="#F8C194"/>
<path transform="translate(552,351)" d="m0 0h10l5 3 2 2v3l-19 1-2 7-3 15-6 12-7 6-4 2-25 2h-3l-8-7-7-10-7-16v-5h-14l-7 1 2-4 6-4h13l18 3h20l14-3 18-7z" fill="#19452A"/>
<path transform="translate(843,573)" d="m0 0h5l2 3v22l-4 28-7 30-9 30-8 23-11 26-13 25-10 14-9 10-12 6h-12l-10-5-8-8-1-3 5 2 9 3h11l8-4 8-7 10-13 9-16 9-19 12-31 10-31 6-26 4-20 3-23 1-12z" fill="#1B472B"/>
<path transform="translate(535,200)" d="m0 0 6 4 6 9 3 8 1 6v13l-3 6-5 4-2 1h-8v2h15l10-5 6-7 2-2 7 10 5 12 1 3v12l-4 8-3 1-16-6-8-2h-6l18 12 5 6-1 2-11-5-14-4-12-2-28-1v-1h24l1-47 4-3 10-2v-8l-1-4z" fill="#D1E0CA"/>
<path transform="translate(459,768)" d="m0 0h7l4 1v8l-5 11 7-4 7 1 3 6-2 9-4 9 4-1 4-4 7-20 4-1 4 2-1 6-4 12v7l6 3-1 2-9 3-4-4-1-2-4 2-4 3h-6l-3-4 1-9 3-11-5 1-7 8-5 12-4 2-2-1v-4l-8 5-3 1h-9l-8-3-1-5 3-2 4 1 1 2 5 1 3-1 2-3v-3l-10-5-4-1-2 4-6 8-8 6-3 1h-8l-6-4-3-5v-10l5-10 7-5 9-1 5 3 2 3-1 9-4 5-6 3-8 1v4h11l6-5 7-16 6-7 5-2h11l4 4v18h3l6-14 4-13z" fill="#FCA801"/>
<path transform="translate(683,339)" d="m0 0h2l-2 5-11 13-9 11-8 9-1 5 1 2 5-2 7-7 7-8 12-11 8-7 7-6-2 5-13 16-7 9-11 12-7 9-1 4 5-1 12-14 8-8 9-11 10-13 3-3-2 6-9 14-7 10-8 10-8 7-5 6-1 3h6l5-3 1-2h2l2-4 9-10 11-15 3-3-2 6-8 14-10 13-8 9-8 7-9 6-7-1-5-5-9-8h-7l-7 8-5 1 2-4 4-4 2-5 2-18 4-11 7-12 11-12 13-9h2l-2 4-14 14-9 14-4 10 1 4 11-16 8-10 9-10 13-12z" fill="#F4F5ED"/>
<path transform="translate(665,514)" d="m0 0h2l1 15-2 16-4 12-8 9-7 3h-12l-16-8-6-4-4-5-2-8v-13l9 2h18l13-4 10-7 5-4z" fill="#D2E1CC"/>
<path transform="translate(368,365)" d="m0 0h47l1 1h11l1 3-18 5-36 6-19 2-19 1h-26l-24-1-18-3-2-2 5-3 13-4 42-3z" fill="#609638"/>
<path transform="translate(327,476)" d="m0 0 3 4 6 11 10 15 11 14 9 10 2 1v2l4 2 9 6 3 1h8l14-4 11-5 12-8 9-9h2v14l-10 9-13 8-17 7-8 2h-16l-9-4-6-4-6-5-9-12-10-19-7-21-2-9z" fill="#D1E0CB"/>
<path transform="translate(687,411)" d="m0 0h2l6 29 2 16v33l-4 28-6 23-4 7h-2l-2-34-1-13 4-10 1-18-5-14-1-18-2-9-2-3 1-5 8-8z" fill="#FCA801"/>
<path transform="translate(301,430)" d="m0 0 5 1 9 6 1 2v9l-2 16v16l3 26 6 25 2 8-17-1-4-16-4-25-1-9v-40z" fill="#FCA801"/>
<path transform="translate(475,470)" d="m0 0 12 7 11 3 6 1h9l13-2 11-4 6-3 1 1-1 13 3 6 3 2 17 1v2l-6 1-95 1 1-2 8-4 4-7-3-13z" fill="#619638"/>
<path transform="translate(336,243)" d="m0 0h13l7 3 4 7 1 8-2 9-1 3 19 9 9 7 6 5 12 16 6 12 4 13 2 11v10l-4-1-4-22-6-16-8-13-9-10-8-7-18-8-5-2-2-4 2-7v-12l-3-5-5-2-11 1-6 3-3 4v6l7 14-1 5-15 8-10 9-7 8-8 15-4 14-1 6-1 24h-4l-1-2v-25l4-16 8-16 9-11 9-8 14-8h3l-8-16v-8l4-6z" fill="#F0F2E9"/>
<path transform="translate(496,431)" d="m0 0 5 1 10 3 7-1 9-1 2 20v16l-8 3h-26l-3-2-1-10 3-20z" fill="#F8C195"/>
<path transform="translate(717,594)" d="m0 0 5 4 4 8 2 9v25l-5 30-7 34-12 5-16 3-6-4-4-5 21-6 6-2 3-10 8-37 2-14v-30z" fill="#1C482B"/>
<path transform="translate(577,605)" d="m0 0 4 4 5 12 1 10v12l-2 20-4 25-6 26-4 4-14 3-9 1-5-3-3-3v-3l22-6h4l4-19 5-25 3-23v-23z" fill="#1C482B"/>
<path transform="translate(512,177)" d="m0 0h16l11 3 12 7 11 11 5 10 2 6v8l9 3 6 5 4 7v13h-3l-7-10-11-7-3-2-3-16-5-10-8-8-10-6-9-4-10-2h-8l-11 2-12 6-11 10-6 9v2h-2l-1-4 7-11 5-6 12-9 12-5z" fill="#F3F6EE"/>
<path transform="translate(574,766)" d="m0 0h10l8 4 4 5v6l-5 5-6-1-1-4 1-6-1-1h-9l-4 2 1 7 8 6 8 7 1 3v10l-3 5-6 4-4 1h-13l-8-3-6-7v-7l4-6h6l2 2-1 5-1 1v5l6 4h7l5-4 1-2-1-9-2-4-5-2-9-8-1-2v-6l4-6 6-3z" fill="#FCA801"/>
<path transform="translate(426,627)" d="m0 0 5 4 6 12 2 12v27l-2 40-5 2-16 2h-8l-8-8 1-2 26-4h3l-1-2v-17l1-17v-28l-2-14z" fill="#1D492B"/>
<path transform="translate(485,660)" d="m0 0 4 2 5 6-2 9v27l1 14v10l-6 4-14 4h-11l-7-5 1-3 20-6 7-3-1-15v-27l2-16z" fill="#1D492B"/>
<path transform="translate(625,647)" d="m0 0 7 6 3 4-1 9-1 43-2 3-17 4h-11l-5-5v-3l24-7h2l-1-4v-41z" fill="#1D492B"/>
<path transform="translate(423,366)" d="m0 0 5 1v2l-18 5-36 6-19 2-19 1h-26l-24-1-18-3-2-2 5-3 32 2h36l39-3 41-6z" fill="#F0F0E5"/>
<path transform="translate(343,766)" d="m0 0h22l6 3-1 5-4 1h-13l-4 5v5h8v6l-3 3h-9l-3 9-3 10v4l-3 1-5-3-1-1v-8l2-7v-9l5-3 2-4v-6l-3-3 2-5z" fill="#FBA801"/>
<path transform="translate(524,783)" d="m0 0 6 1 1 6-9 21-5 10-9 10-6 1-4-2-1-7h6l5-5 2-4-7-1-2-9 3-18 2-2 5 1 1 2v9l-2 10 4-2 7-10 2-9z" fill="#FCA801"/>
<path transform="translate(565,463)" d="m0 0h2l6 12 8 9 6 4 3 6 1 8-1 2 1 11 7 10 2 1-1 9v11l1 9-2-1-7-19-8-21-2-10-7-6-6-3 1-7v-11l-4-11z" fill="#F4F5EE"/>
<path transform="translate(454,217)" d="m0 0 3 1v2l-12 6-10 9-7 10-4 11v11l3 12 6 10 8 6v2h-7l-9-6-7-11-3-10-1-10 2-10 6-12 7-8 10-7 12-5z" fill="#F4F5ED"/>
<path transform="translate(336,243)" d="m0 0h13l7 3 4 7 1 8-2 9-1 3 19 9 9 7 6 5 12 16 6 12 4 13 2 11v10l-4-1-4-22-6-16-8-13-9-10-8-7-18-8-5-2-2-4 2-7v-12l-3-5-5-2-13 1v-4z" fill="#EFF1E6"/>
<path transform="translate(492,453)" d="m0 0 14 1h14l9-1v16l-8 3h-26l-3-2-1-10z" fill="#F8F9F4"/>
<path transform="translate(607,531)" d="m0 0 9 2 22 1v10l-3 10-5 3-7-1-8-3-6-1-2-8z" fill="#F8FAF5"/>
<path transform="translate(335,290)" d="m0 0 5 1-2 3-9 4-8 6-5 6-7 14-3 9-1 6v23h-11v-16l4-17 5-12 8-11 8-8 10-6z" fill="#FAEEE1"/>
<path transform="translate(666,628)" d="m0 0 6 1 1 2v6l-8 17-9 27-1 2-5-1-4-5 9-30 6-13z" fill="#1C472B"/>
<path transform="translate(526,639)" d="m0 0 5 1 3 4-1 4-5 8-7 16-5 18-2 3-4-1-3-3v-7l6-21 5-12 5-8z" fill="#1C482B"/>
<path transform="translate(387,695)" d="m0 0 2 1 4 9-1 4-9 9-8 4-9 2h-8l-9-4-4-4v-2h13l14-4 10-7z" fill="#1C472B"/>
<path transform="translate(540,364)" d="m0 0 5 1v5l-12 6-13 3h-24l-9-2-4-3 2-4h30l16-3z" fill="#F5F6EF"/>
<path transform="translate(385,651)" d="m0 0 3 1 1 9-6 5-8 7-5 10-1 5-6-1-2-9 2-9 6-9 9-6z" fill="#1C482B"/>
<path transform="translate(369,782)" d="m0 0 3 1 1 5 7-3 4-3 3 1 3 9-1 2h-9l-8 12-2 10-5 1-3-3v-9l2-5 2-11z" fill="#FCA801"/>
<path transform="translate(431,305)" d="m0 0h8l-1 8-2 12-8 5-5 3h-3l-5-16v-3l14-8z" fill="#FCA801"/>
<path transform="translate(277,665)" d="m0 0 3 1 4 8-2 4-10 7-5 2h-10l-9-4-8-6-6-6 1-2 7 5 6 2h14l8-3z" fill="#1E4A2B"/>
<path transform="translate(768,574)" d="m0 0 6 2 3 9 3 27 2 16v11l-2-1-6-16-5-25-1-7z" fill="#1E4A2B"/>
<path transform="translate(488,317)" d="m0 0 7 2 5 8 2 5v4l-5 1-7-4h-6l-7 6-2 4-4-1 2-12 5-8z" fill="#1A452A"/>
<path transform="translate(507,566)" d="m0 0h18l17 3 4 2v2l-14 1h-35l-15-1-5-1 1-2 18-3z" fill="#16412A"/>
<path transform="translate(786,663)" d="m0 0 3 1 2 7v6l-5 4-9 3h-11l-8-5-7-7v-2l5 1 6 2h9l9-3 5-5z" fill="#1C482B"/>
<path transform="translate(386,663)" d="m0 0h3l-1 16-2 7-6 6-9 1-2-2v-8l5-10 7-7z" fill="#F5F7F1"/>
<path transform="translate(414,283)" d="m0 0h2l9 14-1 4-10 6-4-2-7-10-3-3v-3z" fill="#FCA801"/>
<path transform="translate(563,218)" d="m0 0 4 3 11 4 6 5 4 7v13h-3l-7-10-11-7-3-2-1-4z" fill="#D2DFC9"/>
<path transform="translate(531,314)" d="m0 0 7 1 6 4 4 7v8l-2 2h-3l-6-8-4-1-11 4-1-5 3-7 4-4z" fill="#1B472B"/>
<path transform="translate(368,626)" d="m0 0h7l5 3 2 5-15 5-9 4h-7l-2-4v-5l15-7z" fill="#1C482B"/>
<path transform="translate(456,441)" d="m0 0h2l-1 5-8 5-14 9-10 9-11 12-2 3-3-1-1-3 7-8 9-10 10-9 13-8z" fill="#F1F3E9"/>
<path transform="translate(468,592)" d="m0 0h14l7 3 1 3h2l-1 2-5-4-7-2h-9l-18 4-12 3 2 10 2 46 1 31 3 24 4 11 2 3-1 3-3-4-4-10-3-21-2-32-1-41-1-21 10-4z" fill="#F9C296"/>
<path transform="translate(311,544)" d="m0 0h14l15 5 2 2 1 6h-2l-1-6-10-1-12-2h-9l-9 2-3 22-8 36-5 17-6 11-3 3-5-1 1-3 4 1 8-16 4-13 6-28 3-15 2-13 3-4z" fill="#F9C296"/>
<path transform="translate(749,567)" d="m0 0h14l7 5-2 1-7-4h-9l-24 6-3 1 1 16 4 22 2 14 5 15 8 18 2 5-5-5-5-11-8-21h-1l-1-14-3-12h2l-2-8-2-13v-7l14-5z" fill="#F8C296"/>
<path transform="translate(262,704)" d="m0 0h2l-2 4-14 15-10 10-8 7-5 4-5 5-14 12-2 3 2 9 14 32-1 2-6-10-8-20-4-12 3-5 8-8 11-9 16-15 7-6 1-2h2l2-4 10-10z" fill="#F9C296"/>
<path transform="translate(233,573)" d="m0 0 5 4 11 16 12 21 9 20h-3l-8-14-15-28-10-16z" fill="#27542D"/>
<path transform="translate(789,678)" d="m0 0h2l-2 6-8 10-13 15-14 14-8 7-16 13-6 5 5 13 7 12-1 2-6-9-7-15v-5l6-5 9-7 8-6 1-2h2v-2l6-5h2v-2l8-7 11-12 11-14 1-5z" fill="#F9C296"/>
<path transform="translate(813,564)" d="m0 0h20l9 2 2 2 1 5-3-1-1-4-4-1-23-1-4 24-6 19-6 15-6 12-6 5-4-1v-5l2 3 4-1 6-10 7-17 6-18 5-27z" fill="#F9C296"/>
<path transform="translate(176,576)" d="m0 0 2 1-3 3 1 6 8 14 9 14 8 12 13 18 10 13v2h2l7 9-1 2-9-10-9-12-14-19-17-26-7-11-4-9 1-5z" fill="#F9C296"/>
<path transform="translate(616,788)" d="m0 0 3 2-1 10-5 8-7 1-2-1 1-6 7-11z" fill="#204D2B"/>
<path transform="translate(603,424)" d="m0 0 6 1 2 4-15 2-6 4-2 3v11l-2 2h-3l-2-5 1-6 6-9 10-5z" fill="#28562D"/>
<path transform="translate(381,635)" d="m0 0 3 1 3 6-1 4-3-1h-7l-16 5-9 7-8 9-7 14-1 3v13l7 14 2 2-1 3-5-6-5-11v-17l4-10 6-9h2l2-4 9-8 8-4 11-3h10z" fill="#F9C296"/>
<path transform="translate(381,610)" d="m0 0h14l12 2 12 6 5 6-4-2-9-6-11-3h-24l-18 4-9 4-4 3 1 5 3 5-1 2-4-5v-2h-2v-8h3l6-4 17-5z" fill="#F9C296"/>
<path transform="translate(701,789)" d="m0 0 4 1v7l-5 9-5 4-2-1v-9l4-8z" fill="#1F4B2B"/>
<path transform="translate(548,436)" d="m0 0 4 5 5 18 2 7-8 1-3-21z" fill="#EFF1E7"/>
<path transform="translate(561,250)" d="m0 0 3 1 2 5v17l-2 3-4-1-2-20z" fill="#FBFCF8"/>
<path transform="translate(657,409)" d="m0 0h10l-1 4-4 6h-2l1 3-7-1-4-3 2-6z" fill="#D1E0CA"/>
<path transform="translate(474,437)" d="m0 0 1 3-4 14-2 11-4 4-2-1 1-11 4-12 4-6z" fill="#EFF1E6"/>
<path transform="translate(524,284)" d="m0 0h16l16 2 8 7 1 4-15-6-16-4-10-2z" fill="#F1F2E8"/>
<path transform="translate(368,393)" d="m0 0h10l-4 7-5 5-7-4-6-5v-1z" fill="#FCA801"/>
<path transform="translate(484,302)" d="m0 0 4 1-1 4-15 14-3 3-2-1 7-14 7-6z" fill="#1E4A2B"/>
<path transform="translate(681,575)" d="m0 0 14 1 10 4 12 11v3l-5-5-8-7-11-4h-16l-13 4-11 6-10 10h-4v-2l5-2 9-9 12-6 8-3z" fill="#F9C296"/>
<path transform="translate(463,476)" d="m0 0 5 1 2 1v7l-5 5-5-1-3-5 2-6z" fill="#F6F5ED"/>
<path transform="translate(335,290)" d="m0 0 5 1-2 3-9 4-8 6-5 4 3-6-8 7v-3l8-8 10-6z" fill="#F9C297"/>
<path transform="translate(553,476)" d="m0 0h5l3 3v7l-4 3-6-2-1-1v-7z" fill="#F4F5EC"/>
<path transform="translate(673,636)" d="m0 0 2 1v9l-4 18v24l5 12 2 4-5-5-4-9-1-6v-16l5-26-1-5z" fill="#F9C296"/>
<path transform="translate(700,343)" d="m0 0v3l-9 12-8 10-2-1v-2l-4-1 8-7 10-9z" fill="#D7E0CB"/>
<path transform="translate(342,253)" d="m0 0 4 1 2 1-1 5-3 2h-8l-3-3 2-5z" fill="#FCA801"/>
<path transform="translate(608,443)" d="m0 0h3v16h-6l-2-2 1-8z" fill="#F9C9A2"/>
<path transform="translate(386,663)" d="m0 0h3l-1 16-2 7-6 6-9 1-2-2v-8h1l1 6h7l5-3 2-4-1-7 2-3z" fill="#F5C49A"/>
<path transform="translate(205,560)" d="m0 0h15l8 5 5 5-1 2-8-7-6-3h-10l-16 6-12 8-2-1 8-6 16-8z" fill="#F9C296"/>
<path transform="translate(309,309)" d="m0 0v3l-7 12-4 15-1 18 1 5h-4v-16l4-17 5-12z" fill="#F9C296"/>
<path transform="translate(585,656)" d="m0 0h2l1 22 3 18 6 11-1 2-6-9-3-11-3-26z" fill="#F9C296"/>
<path transform="translate(431,338)" d="m0 0 2 2-3 12v4l-5-1v-11l4-5z" fill="#F5F5EC"/>
<path transform="translate(515,402)" d="m0 0h12l2 2-4 2-5 1h-13l-3-3z" fill="#F7F2E8"/>
<path transform="translate(583,350)" d="m0 0h6l4 5 1 5-4 2-2-6-7 2 1-7z" fill="#1E4B2B"/>
<path transform="translate(435,785)" d="m0 0 5 1 1 1v5l-2 2-8-1-3-1 2-4z" fill="#26542D"/>
<path transform="translate(480,455)" d="m0 0h2l1 3v10l-3 1-5-3 2-8z" fill="#EEF0E5"/>
<path transform="translate(542,455)" d="m0 0h2l1 5v7l-4 2h-3v-10z" fill="#EEF0E4"/>
<path transform="translate(670,789)" d="m0 0 4 1 1 5-7 5-3-1 1-6z" fill="#29572D"/>
<path transform="translate(497,770)" d="m0 0 4 1 2 2v5l-2 2-5-1-2-2 1-5z" fill="#FCA801"/>
<path transform="translate(647,540)" d="m0 0h2l-1 4-7 13h-2l1-8 3-6z" fill="#FBFCF8"/>
<path transform="translate(403,789)" d="m0 0 5 1v5l-4 4h-5l2-9z" fill="#26542D"/>
<path transform="translate(504,342)" d="m0 0h5l1 5-4 4h-5l1-7z" fill="#204C2B"/>
<path transform="translate(641,789)" d="m0 0h5l-1 7-3 3h-4v-6z" fill="#214E2C"/>
<path transform="translate(614,439)" d="m0 0 4 4-1 13-2 1-1-2-1-9-1-5z" fill="#F9C296"/>
<path transform="translate(282,677)" d="m0 0 2 1-6 11-9 11-3 4h-2l2-4 11-14 4-8z" fill="#F8C296"/>
<path transform="translate(539,299)" d="m0 0 5 1 2 4 2 3v3l-4-2-8-5 1-3z" fill="#27542D"/>
<path transform="translate(726,603)" d="m0 0 2 1 3 19v5l-3 1-1-14-1-5z" fill="#F9C193"/>
<path transform="translate(706,348)" d="m0 0 1 2-8 14-4 4-2-1 2-4z" fill="#D7DBC2"/>
<path transform="translate(596,437)" d="m0 0 3 1 1 3 4-3h2l-1 4-4 4-3-1v-2h-2l-1-5z" fill="#F9C296"/>
<path transform="translate(354,616)" d="m0 0h2v2l-7 3-4 3 1 5 3 5-1 2-4-5v-2h-2v-8h3l6-4z" fill="#F6C399"/>
<path transform="translate(683,339)" d="m0 0h2l-2 5-5 5h-4-3l10-9z" fill="#D8DEC8"/>
<path transform="translate(386,663)" d="m0 0h3l-1 16-1 5h-2l-1-9 2-3z" fill="#F9C296"/>
<path transform="translate(624,445)" d="m0 0h4l-1 4-2 1-3 6-2-2v-6z" fill="#F9C296"/>
<path transform="translate(519,394)" d="m0 0h2l2 5h-2v2l3 1h-7l-4-2 4-4h2z" fill="#5A9037"/>
<path transform="translate(491,600)" d="m0 0 5 2 2 2-1 6-3-1-3-6z" fill="#26542D"/>
<path transform="translate(631,586)" d="m0 0 5 3 3 3-1 4-4-1z" fill="#28562D"/>
<path transform="translate(789,678)" d="m0 0h2l-2 6-8 10-4 2 6-8 4-6v-3z" fill="#F7C297"/>
<path transform="translate(585,656)" d="m0 0h2v22h-1l-2-15z" fill="#F9C08E"/>
<path transform="translate(345,645)" d="m0 0 3 3-5 8-2 1 3-11z" fill="#2D5B2E"/>
<path transform="translate(472,203)" d="m0 0h3l-1 4-3 6-2 1-1-4z" fill="#E9EBDC"/>
<path transform="translate(380,676)" d="m0 0 3 2-2 4h-4l1-5z" fill="#31602F"/>
<path transform="translate(582,453)" d="m0 0 2 2v7l-3-1-1-5z" fill="#32612F"/>
</svg>
